<svg version="1.1" xmlns="http://www.w3.org/2000/svg" xmlns:xlink="http://www.w3.org/1999/xlink" width="800"
  height="800">
  <defs>
    <linearGradient id="graph-fill-gradient" x1="0" y1="108" x2="0" y2="283" gradientUnits="userSpaceOnUse">
      <stop offset="0%" stop-color="#A9DEBE" />
      <stop offset="48%" stop-color="#68BE8D" />
      <stop offset="100%" stop-color="#2F8E5E" />
    </linearGradient>
  </defs>
  <g transform="scale(2,2)">
    <g id="graphpaper-11f9b3e7">
      <g id="axis-11f9b3e7">
        <g>
          <g>
            <path fill="none" stroke="rgb(0,0,0)" class="dcg-svg-tickmark" paint-order="fill stroke markers" d=""
              stroke-opacity="0.9" stroke-miterlimit="2" stroke-width="1.5" stroke-dasharray="" />
          </g>
        </g>
      </g>
    </g>
    <g id="expressions-11f9b3e7"
      transform="translate(12.51181 4.37247) translate(187.48819 195.62753) scale(2.16) translate(-187.48819 -195.62753)">
      <g id="sketch-11f9b3e7">
        <title>式7</title>
        <path fill="url(#graph-fill-gradient)" stroke="none" paint-order="stroke fill markers" d="" fill-opacity="0.4" />
        <path fill="url(#graph-fill-gradient)" stroke="#FFFFFF" stroke-width="8" stroke-linejoin="round"
          stroke-linecap="round" class="dcg-svg-region" paint-order="stroke fill markers"
          d=" M 142.87109375 120.01953125000003 L 145.123291015625 118.75610351562501 L 146.002197265625 118.26171875000001 L 146.82617187500003 117.82226562500001 L 152.099609375 115.29541015625003 L 152.5390625 115.18554687500001 L 153.41796875 114.74609375000001 L 154.022216796875 114.47143554687503 L 155.99975585937503 113.71612548828126 L 156.32934570312503 113.55133056640625 L 157.373046875 113.2080078125 L 159.130859375 112.54882812500001 L 161.163330078125 111.94458007812501 L 161.65771484375 111.724853515625 L 161.822509765625 111.724853515625 L 162.646484375 111.4501953125 L 164.1845703125 111.01074218750001 L 164.51416015625 110.90087890625001 L 170.94116210937503 109.417724609375 L 171.051025390625 109.417724609375 L 181.048583984375 108.09936523437501 L 181.158447265625 108.09936523437501 L 182.696533203125 107.98950195312501 L 183.026123046875 107.98950195312501 L 184.893798828125 107.87963867187501 L 185.223388671875 107.87963867187501 L 185.9375 107.93457031250001 L 186.102294921875 107.87963867187501 L 186.81640625 107.93457031250001 L 186.981201171875 107.87963867187501 L 187.6953125 107.93457031250001 L 187.860107421875 107.87963867187501 L 188.57421875 107.93457031250001 L 188.739013671875 107.87963867187501 L 189.453125 107.93457031250001 L 189.617919921875 107.87963867187501 L 190.5517578125 107.93457031250001 L 193.51806640625 108.04443359375001 L 193.84765625 108.15429687500001 L 194.7265625 108.15429687500001 L 196.15478515625 108.26416015625001 L 198.297119140625 108.53881835937501 L 198.956298828125 108.59375000000001 L 198.956298828125 108.59375000000001 L 199.176025390625 108.64868164062501 L 204.339599609375 109.47265625 L 204.39453125 109.58251953125 L 204.449462890625 109.527587890625 L 205.82275390625 109.80224609375 L 206.70166015625 109.967041015625 L 210.162353515625 110.845947265625 L 210.162353515625 110.81848144531251 L 214.83154296875 112.21923828125 L 214.94140625 112.3291015625 L 215.49072265625 112.43896484375 L 219.28100585937503 113.81225585937501 L 219.44580078125 113.86718750000001 L 223.675537109375 115.67993164062501 L 223.84033203125 115.73486328125001 L 224.609375 116.10565185546878 L 226.092529296875 116.77856445312501 L 227.79541015625 117.71240234375001 L 228.125 117.82226562500001 L 231.256103515625 119.9748992919922 L 230.596923828125 120.37658691406253 L 228.179931640625 122.11122512817384 L 228.125 122.10693359375001 L 226.806640625 123.09570312500001 L 226.25732421875 123.53515625 L 223.895263671875 125.457763671875 L 222.8515625 126.3916015625 L 221.533203125 127.49023437500001 L 220.21484375 128.80859375 L 216.864013671875 132.32421875000003 L 216.69921875 132.54394531250003 L 215.545654296875 133.807373046875 L 214.996337890625 134.521484375 L 214.94140625 134.521484375 L 214.17236328125 135.565185546875 L 214.007568359375 135.78491210937503 L 213.623046875 136.27929687500003 L 211.42578125 139.02556999810827 L 208.01323946731128 137.70073946731128 L 204.99663700877548 136.71875000000003 L 201.03509691532648 135.68365308467355 L 196.67976142391646 134.86324428804178 L 195.0486675419167 134.63883245808333 L 190.49567127786645 134.24567127786645 L 185.9375 134.19165426854065 L 178.90625 134.77436473272093 L 177.22309022817672 135.03559022817672 L 169.98114790171854 136.71875000000003 L 164.84375 138.49648221825464 L 161.73248947927445 139.83001052072558 L 156.57576113118373 142.51326113118373 L 154.54247934837207 143.75 L 150.78125 146.3397710138023 L 148.29384199476584 148.2938419947658 L 143.75000000000003 152.45780066448532 L 141.17281735053064 155.2353173505306 L 139.04588385527245 157.8125 L 135.20530669106668 163.3303066910667 L 134.30017505969766 164.84375 L 131.69289521568567 169.86960478431436 L 130.48325966600393 172.67075966600393 L 129.6875 174.75535727058912 L 128.35314929435873 178.90625 L 127.24432599688635 183.49432599688635 L 126.80348208768308 185.9375 L 126.3656470310183 189.25935296898172 L 126.05004485765552 194.26428860714586 L 126.03924910914587 196.35174910914586 L 126.19081510170322 200 L 126.50171023869603 203.185789761304 L 127.10257822625442 207.03125 L 128.86567038216253 214.0625 L 129.6875 216.4966549643088 L 131.56054352383666 221.09375 L 133.26558720543932 224.54691279456074 L 135.33142765531025 228.125 L 136.71875 230.25224050729113 L 140.43631231327362 235.15625 L 145.46863082350384 240.46886917649616 L 147.381375282067 242.1875 L 150.78125 244.91224056013175 L 153.30497177485194 246.69502822514806 L 157.81250000000003 249.43954789072993 L 162.35661400462345 251.70588599537658 L 164.84375 252.7555181574856 L 171.875 255.0632822034517 L 172.8211731726675 255.3038268273325 L 178.90625 256.4776506392759 L 186.7631453622317 257.0756453622317 L 192.96875 256.83510225367144 L 199.6205647784448 255.87056477844476 L 200.58079827368908 255.66920172631094 L 207.03125 253.88987110398574 L 212.29531527754503 251.85078263877253 L 215.28045549695298 250.43670549695298 L 219.7845810416375 247.9095810416375 L 223.11003856332692 245.703125 L 224.609375 244.60206161460385 L 228.125 241.72686674487784 L 231.640625 238.37184308472493 L 235.15625 234.41266998316672 L 238.671875 229.63901303670121 L 240.60162765400375 226.53912765400372 L 242.1875 223.6375246366108 L 243.41721910271266 221.09375 L 245.11116943897997 216.98616943897997 L 246.11209087111504 214.0625 L 247.87518355793807 207.03125 L 248.07929532095207 205.89179532095207 L 248.78695414973404 200 L 248.84882538124558 192.22890076249112 L 247.95986890265547 184.67861890265547 L 246.91990632681762 179.9883123463648 L 246.09916299922304 177.1484375 L 244.82421875 173.50715009879482 L 244.05231632921868 171.6017715228907 L 248.66943359375 168.02978515625 L 248.834228515625 167.974853515625 L 249.32861328125 167.48046875 L 250.701904296875 166.326904296875 L 252.734375 164.44549560546875 L 253.448486328125 163.80004882812503 L 253.61328125 163.56658935546875 L 254.327392578125 162.921142578125 L 254.4921875 162.68768310546875 L 254.931640625 162.20703125 L 257.12890625 159.8175048828125 L 261.63330078125 154.0771484375 L 263.37738037109375 151.55029296875 L 263.89923095703125 152.42919921875 L 265.4630661010742 155.28564453125 L 268.280029296875 161.328125 L 268.3349609375 161.5478515625 L 268.5546875 161.9873046875 L 268.5546875 161.9873046875 L 269.158935546875 163.525390625 L 269.598388671875 164.67895507812503 L 272.344970703125 173.193359375 L 272.344970703125 173.358154296875 L 272.61962890625 174.18212890625 L 272.94921875 175.6103515625 L 274.322509765625 182.916259765625 L 274.871826171875 187.255859375 L 274.9267578125 188.3544921875 L 274.981689453125 188.57421875 L 274.981689453125 188.57421875 L 275.03662109375 189.78271484375 L 275.091552734375 189.947509765625 L 275.25634765625 195.166015625 L 275.201416015625 199.12109375 L 275.146484375 200 L 275.0640869140625 201.64794921875 L 275.03662109375 201.7578125 L 275.03662109375 201.7578125 L 274.981689453125 202.63671875 L 274.9267578125 203.076171875 L 274.871826171875 203.955078125 L 274.70703125 205.2734375 L 274.652099609375 206.097412109375 L 274.59716796875 206.26220703125 L 274.267578125 208.7890625 L 274.212646484375 209.228515625 L 274.102783203125 209.66796875 L 274.0478515625 210.107421875 L 272.39990234375 217.90771484375 L 272.18017578125 218.56689453125 L 271.8505859375 219.775390625 L 270.806884765625 223.236083984375 L 270.751953125 223.291015625 L 270.64208984375 223.73046875 L 270.64208984375 223.73046875 L 270.3125 224.609375 L 270.3125 224.71923828125 L 266.851806640625 233.1512451171875 L 266.741943359375 233.343505859375 L 266.632080078125 233.563232421875 L 265.91796875 235.04638671875 L 265.80810546875 235.26611328125 L 263.775634765625 239.056396484375 L 263.720703125 239.111328125 L 263.5009765625 239.55078125 L 263.5009765625 239.55078125 L 263.28125 239.88037109375 L 261.5234375 242.73681640625 L 261.0015869140625 243.61572265625 L 260.75439453125 243.9453125 L 260.75439453125 243.9453125 L 260.64453125 244.15130615234375 L 257.12890625 248.9990234375 L 256.634521484375 249.658203125 L 256.59332275390625 249.76806640625 L 249.21875 258.0078125 L 246.47216796875 260.64453125 L 245.098876953125 261.798095703125 L 244.439697265625 262.40234375 L 237.79296875 267.56591796875 L 237.62817382812503 267.67578125 L 228.948974609375 273.004150390625 L 227.24609375 273.828125 L 227.13623046875 273.93798828125 L 226.3671875 274.267578125 L 225.048828125 274.9267578125 L 224.27978515625 275.25634765625 L 223.291015625 275.69580078125 L 220.654296875 276.904296875 L 219.9951171875 277.1240234375 L 218.56689453125003 277.7008056640625 L 214.117431640625 279.25262451171875 L 214.0625 279.21142578125 L 213.623046875 279.43115234375 L 213.18359375 279.541015625 L 210.546875 280.31005859375 L 203.680419921875 281.903076171875 L 203.076171875 281.9580078125 L 202.252197265625 282.16400146484375 L 202.197265625 282.06787109375 L 202.142333984375 282.177734375 L 201.318359375 282.28759765625 L 200.6591796875 282.3974609375 L 199.89013671875 282.50732421875 L 199.285888671875 282.6171875 L 199.285888671875 282.6171875 L 197.802734375 282.72705078125 L 195.8251953125 283.001708984375 L 187.58544921875 283.38623046875 L 182.6416015625 283.2763671875 L 180.224609375 283.056640625 L 180.169677734375 283.111572265625 L 176.214599609375 282.672119140625 L 174.2919921875 282.3974609375 L 173.907470703125 282.342529296875 L 164.788818359375 280.419921875 L 163.800048828125 280.145263671875 L 161.1083984375 279.3212890625 L 160.44921875 279.1015625 L 160.33935546875 279.1015625 L 157.8125 278.22265625 L 157.757568359375 278.22265625 L 153.52783203125 276.57470703125 L 153.253173828125 276.46484375 L 148.58398437500003 274.267578125 L 143.75000000000003 271.74072265625 L 141.11328125000003 270.0927734375 L 140.673828125 269.873046875 L 140.23437500000003 269.54345703125 L 140.23437500000003 269.54345703125 L 139.959716796875 269.43359375 L 139.08081054687503 268.829345703125 L 138.641357421875 268.5546875 L 138.641357421875 268.5546875 L 138.4765625 268.44482421875 L 135.125732421875 266.082763671875 L 134.466552734375 265.533447265625 L 131.99462890625 263.61083984375 L 130.072021484375 262.017822265625 L 128.533935546875 260.64453125 L 126.99584960937503 259.23004150390625 L 126.66625976562501 258.88671875 L 125.51269531250003 257.7880859375 L 122.60131835937501 254.7393798828125 L 122.38159179687503 254.4921875 L 116.50390625000003 247.2412109375 L 113.64746093750003 243.06640625 L 112.98828125000001 241.9677734375 L 112.93334960937503 241.9403076171875 L 110.46142578125003 237.68310546875 L 106.56127929687501 229.608154296875 L 105.95703125000001 228.125 L 103.75976562500003 221.97265625 L 103.21388244628909 220.21484375 L 103.26538085937503 220.21484375 L 103.04565429687503 219.610595703125 L 102.77099609375001 218.45703125 L 102.60620117187503 218.017578125 L 102.33154296875003 216.80908203125 L 102.27661132812503 216.69921875 L 102.27661132812503 216.69921875 L 101.50756835937503 213.238525390625 L 101.45263671875001 213.07373046875 L 100.18920898437501 204.888916015625 L 100.13427734375 203.955078125 L 100.07934570312501 203.515625 L 100.02441406250001 202.63671875 L 99.96948242187501 202.197265625 L 99.91455078125001 201.318359375 L 99.85961914062501 200.439453125 L 99.80468750000001 198.681640625 L 99.74975585937501 197.802734375 L 99.69825744628909 195.60546875 L 99.74975585937501 195.550537109375 L 99.80468750000001 191.32080078125 L 99.85961914062501 191.156005859375 L 99.91455078125001 189.56298828125 L 99.96948242187501 189.288330078125 L 100.02441406250001 188.134765625 L 100.07934570312501 187.6953125 L 100.18920898437501 186.431884765625 L 100.24414062500001 185.9375 L 101.34277343750001 178.90625 L 101.50756835937503 178.082275390625 L 101.56250000000003 177.62908935546875 L 101.89208984375003 176.26953125 L 102.11181640625001 175.390625 L 102.55126953125003 173.52294921875 L 103.10058593750003 171.6552734375 L 103.10058593750003 171.435546875 L 105.95703125000001 163.0859375 L 110.07690429687501 154.296875 L 110.51635742187503 153.41796875 L 113.64746093750003 148.14453125 L 113.86718750000001 147.81494140625 L 117.32788085937503 142.87109375 L 117.38281250000001 142.87109375 L 121.72241210937503 137.542724609375 L 122.98583984375 136.16943359375003 L 123.53515625000001 135.51025390625 L 128.80859375 130.34667968750003 L 130.126953125 129.248046875 L 131.170654296875 128.2867431640625 L 131.610107421875 127.92968750000001 L 134.08203125 125.95214843750001 L 140.56396484375003 121.44775390625004 L 140.728759765625 121.39282226562503 L 141.11328125000003 121.11816406250001 L 141.44287109375003 120.89843750000003 L 142.87109375 120.01953125000003 L 142.87109375 120.01953125000003" />
      </g>
      <g id="sketch-11f9b3e7">
        <title>式9</title>
        <path fill="url(#graph-fill-gradient)" stroke="none" paint-order="stroke fill markers" d="" fill-opacity="0.4" />
        <path fill="url(#graph-fill-gradient)" stroke="#FFFFFF" stroke-width="8" stroke-linejoin="round"
          stroke-linecap="round" class="dcg-svg-region" paint-order="stroke fill markers"
          d=" M 255.48095703125 114.55383300781251 L 257.403564453125 114.141845703125 L 257.568359375 114.19677734375 L 258.172607421875 114.03198242187501 L 260.205078125 113.64746093750001 L 261.19384765625 113.53759765625001 L 261.962890625 113.42773437500001 L 263.28125 113.31787109375 L 264.3798828125 113.2080078125 L 265.478515625 113.09814453125 L 266.796875 112.98828125000001 L 270.2207840961522 113.07999715384784 L 270.1588743434645 115.7786256565355 L 269.5055650864217 122.65625000000001 L 268.08089080527265 129.6875 L 267.190835873886 132.80916412611404 L 265.11132615560734 138.54882615560734 L 262.68773267358233 143.75 L 260.36384610247444 147.8638461024744 L 258.4713086953574 150.78125 L 254.4717121886329 156.0342121886329 L 252.9192487611832 157.8125 L 247.51779828065 163.14279828065 L 245.50820128807226 164.84375 L 242.1875 167.3763429512518 L 239.50740650327052 169.19490650327052 L 234.96005255539905 171.875 L 230.37034804357825 174.12034804357828 L 228.125 175.06602937475157 L 221.09375 177.43516277399215 L 219.15885919828588 177.93880459914294 L 213.97865869981877 178.99009130018126 L 207.8227765482669 179.6977765482669 L 203.44772741696522 179.85305383303478 L 203.2958984375 179.78515625 L 203.2958984375 179.78515625 L 203.350830078125 176.434326171875 L 203.40576171875 176.15966796875 L 203.460693359375 174.951171875 L 204.559326171875 166.766357421875 L 204.72412109375 166.05224609375 L 204.779052734375 165.72265625 L 204.779052734375 165.72265625 L 205.2734375 163.63525390625 L 205.2734375 163.56658935546875 L 207.2509765625 157.1533203125 L 207.470703125 156.494140625 L 207.635498046875 156.0546875 L 207.635498046875 156.0546875 L 207.91015625 155.3955078125 L 208.349609375 154.296875 L 208.734130859375 153.41796875 L 208.7890625 153.30810546875003 L 209.832763671875 150.946044921875 L 210.43701171875 149.79248046875 L 212.249755859375 146.38671875 L 212.3046875 146.27685546875 L 213.568115234375 144.189453125 L 213.623046875 144.189453125 L 213.8427734375 143.75 L 213.8427734375 143.75 L 214.0625 143.42041015625 L 216.69921875 139.68505859375 L 216.9189453125 139.35546875 L 218.292236328125 137.59765625 L 218.45703125 137.39166259765625 L 219.9951171875 135.6201171875 L 221.09375 134.41162109375003 L 226.3671875 129.28924560546878 L 228.564453125 127.49023437500001 L 229.058837890625 127.05078125000001 L 230.76171875 125.77362060546878 L 233.343505859375 123.974609375 L 233.3984375 123.974609375 L 240.2099609375 120.01953125000003 L 240.97900390625 119.68994140625003 L 241.5283203125 119.36035156250001 L 242.02270507812503 119.14062500000003 L 242.02270507812503 119.14062500000003 L 243.89038085937503 118.31665039062501 L 244.000244140625 118.31665039062501 L 244.000244140625 118.26171875000001 L 252.0751953125 115.40527343750003 L 252.45971679687503 115.35034179687503 L 253.118896484375 115.13061523437501 L 253.173828125 115.18554687500001 L 253.28369140625003 115.07568359375 L 255.48095703125 114.55383300781251 L 255.48095703125 114.55383300781251" />
      </g>
    </g>
    <g id="labels-11f9b3e7" />
    <g id="labels-11f9b3e7" />
  </g>
</svg>
